# OBJ Export by Luxion KeyShot

mtllib cube.mtl

usemtl initialShadingGroup
v -0.5 0 0.5
v 0.5 0 0.5
v -0.5 1 0.5
v 0.5 1 0.5
v -0.5 1 -0.5
v 0.5 1 -0.5
v -0.5 0 -0.5
v 0.5 0 -0.5
vn 0 0 1
vn 0 0 1
vn 0 0 1
vn 0 0 1
vn 0 1 0
vn 0 1 0
vn 0 1 0
vn 0 1 0
vn 0 0 -1
vn 0 0 -1
vn 0 0 -1
vn 0 0 -1
vn 0 -1 0
vn 0 -1 0
vn 0 -1 0
vn 0 -1 0
vn 1 0 0
vn 1 0 0
vn 1 0 0
vn 1 0 0
vn -1 0 0
vn -1 0 0
vn -1 0 0
vn -1 0 0
vt 0 0
vt 0 1
vt 1 0
vt 1 1
f -8/-3/-24 -7/-1/-23 -5/-2/-22
f -8/-3/-24 -5/-2/-22 -6/-4/-21
f -6/-4/-20 -5/-2/-19 -3/-1/-18
f -6/-4/-20 -3/-1/-18 -4/-3/-17
f -4/-4/-16 -3/-2/-15 -1/-1/-14
f -4/-4/-16 -1/-1/-14 -2/-3/-13
f -2/-4/-12 -1/-2/-11 -7/-1/-10
f -2/-4/-12 -7/-1/-10 -8/-3/-9
f -7/-1/-8 -1/-3/-7 -3/-4/-6
f -7/-1/-8 -3/-4/-6 -5/-2/-5
f -2/-1/-4 -8/-3/-3 -6/-4/-2
f -2/-1/-4 -6/-4/-2 -4/-2/-1

